<svg width="195" height="49" viewBox="0 0 195 49" fill="none" xmlns="http://www.w3.org/2000/svg">
<path d="M27.9024 32.0764L33.0198 40.8308L42.447 24.5024L27.9024 32.0764Z" fill="url(#paint0_linear_4_383)"/>
<path d="M27.9105 17.0164L42.4654 24.5039L27.9208 32.0779L27.9105 17.0164Z" fill="url(#paint1_linear_4_383)"/>
<path d="M33.0092 8.16413L27.899 17.0151L42.454 24.5027L33.0092 8.16413Z" fill="url(#paint2_linear_4_383)"/>
<path d="M14.1249 8.16426L27.8829 17.0232L32.993 8.17217L14.1249 8.16426Z" fill="url(#paint3_linear_4_383)"/>
<path d="M14.8626 24.5451L14.1496 8.16208L27.9075 17.021L14.8626 24.5451Z" fill="url(#paint4_linear_4_383)"/>
<path d="M4.71252 24.4868L14.8527 24.5415L14.1397 8.15843L4.71252 24.4868Z" fill="url(#paint5_linear_4_383)"/>
<path d="M14.1545 40.8166L14.8538 24.535L4.7136 24.4803L14.1545 40.8166Z" fill="url(#paint6_linear_4_383)"/>
<path d="M27.9167 32.0771L14.1621 40.8213L14.8615 24.5397L27.9167 32.0771Z" fill="url(#paint7_linear_4_383)"/>
<path d="M33.0294 40.8358L14.1575 40.8257L27.912 32.0815L33.0294 40.8358Z" fill="url(#paint8_linear_4_383)"/>
<path d="M67.36 18.54H69.46L65.06 29H63.18L61.3 24.28L59.42 29H57.54L53.12 18.54H55.22L58.58 26.86L60.06 23L58.26 18.56H60.12L61.3 21.82L62.46 18.56H64.32L62.54 23L64.02 26.86L67.36 18.54ZM69.9077 25.94C69.9077 25.2733 70.0943 24.6933 70.4677 24.2C70.8543 23.6933 71.381 23.3067 72.0477 23.04C72.7143 22.76 73.4877 22.62 74.3677 22.62C74.8343 22.62 75.3077 22.6533 75.7877 22.72C76.281 22.7867 76.7143 22.8933 77.0877 23.04V22.38C77.0877 21.6467 76.8677 21.0733 76.4277 20.66C75.9877 20.2467 75.3543 20.04 74.5277 20.04C73.941 20.04 73.3877 20.1467 72.8677 20.36C72.3477 20.56 71.7943 20.8467 71.2077 21.22L70.4677 19.74C71.161 19.2733 71.8543 18.9267 72.5477 18.7C73.2543 18.4733 73.9943 18.36 74.7677 18.36C76.1677 18.36 77.2677 18.7333 78.0677 19.48C78.881 20.2133 79.2877 21.26 79.2877 22.62V26.52C79.2877 26.7733 79.3277 26.9533 79.4077 27.06C79.501 27.1667 79.6543 27.2267 79.8677 27.24V29C79.6677 29.04 79.4877 29.0667 79.3277 29.08C79.1677 29.0933 79.0343 29.1 78.9277 29.1C78.461 29.1 78.1077 28.9867 77.8677 28.76C77.6277 28.5333 77.4877 28.2667 77.4477 27.96L77.3877 27.36C76.9343 27.9467 76.3543 28.4 75.6477 28.72C74.941 29.04 74.2277 29.2 73.5077 29.2C72.8143 29.2 72.1943 29.06 71.6477 28.78C71.101 28.4867 70.6743 28.0933 70.3677 27.6C70.061 27.1067 69.9077 26.5533 69.9077 25.94ZM76.5677 26.58C76.7277 26.4067 76.8543 26.2333 76.9477 26.06C77.041 25.8867 77.0877 25.7333 77.0877 25.6V24.4C76.7143 24.2533 76.321 24.1467 75.9077 24.08C75.4943 24 75.0877 23.96 74.6877 23.96C73.8877 23.96 73.2343 24.12 72.7277 24.44C72.2343 24.76 71.9877 25.2 71.9877 25.76C71.9877 26.0667 72.0677 26.36 72.2277 26.64C72.401 26.92 72.641 27.1467 72.9477 27.32C73.2677 27.4933 73.661 27.58 74.1277 27.58C74.6077 27.58 75.0677 27.4867 75.5077 27.3C75.9477 27.1133 76.301 26.8733 76.5677 26.58ZM87.6986 28.46C87.5119 28.5533 87.2786 28.6533 86.9986 28.76C86.7186 28.8667 86.3986 28.96 86.0386 29.04C85.6919 29.12 85.3319 29.16 84.9586 29.16C84.5053 29.16 84.0853 29.08 83.6986 28.92C83.3119 28.76 82.9986 28.5067 82.7586 28.16C82.5319 27.8 82.4186 27.34 82.4186 26.78V20.24H81.0386V18.54H82.4186V15.1H84.6186V18.54H86.8986V20.24H84.6186V26.08C84.6453 26.44 84.7586 26.7067 84.9586 26.88C85.1719 27.0533 85.4319 27.14 85.7386 27.14C86.0453 27.14 86.3386 27.0867 86.6186 26.98C86.8986 26.8733 87.1053 26.7867 87.2386 26.72L87.6986 28.46ZM93.8256 29.2C93.0123 29.2 92.2723 29.06 91.6056 28.78C90.9523 28.4867 90.3856 28.0933 89.9056 27.6C89.4256 27.0933 89.0523 26.52 88.7856 25.88C88.5323 25.2267 88.4056 24.5333 88.4056 23.8C88.4056 22.8133 88.6323 21.9133 89.0856 21.1C89.539 20.2733 90.1723 19.6133 90.9856 19.12C91.799 18.6133 92.7523 18.36 93.8456 18.36C94.939 18.36 95.879 18.6133 96.6656 19.12C97.4656 19.6133 98.0856 20.2667 98.5256 21.08C98.9656 21.8933 99.1856 22.7667 99.1856 23.7C99.1856 23.86 99.179 24.0133 99.1656 24.16C99.1523 24.2933 99.139 24.4067 99.1256 24.5H90.7456C90.7856 25.1133 90.9523 25.6533 91.2456 26.12C91.5523 26.5733 91.939 26.9333 92.4056 27.2C92.8723 27.4533 93.3723 27.58 93.9056 27.58C94.4923 27.58 95.0456 27.4333 95.5656 27.14C96.099 26.8467 96.459 26.46 96.6456 25.98L98.5256 26.52C98.299 27.0267 97.9523 27.4867 97.4856 27.9C97.0323 28.3 96.4923 28.62 95.8656 28.86C95.239 29.0867 94.559 29.2 93.8256 29.2ZM90.6856 23.04H97.0056C96.9656 22.44 96.7923 21.9133 96.4856 21.46C96.1923 20.9933 95.8123 20.6333 95.3456 20.38C94.8923 20.1133 94.3856 19.98 93.8256 19.98C93.279 19.98 92.7723 20.1133 92.3056 20.38C91.8523 20.6333 91.479 20.9933 91.1856 21.46C90.8923 21.9133 90.7256 22.44 90.6856 23.04ZM106.86 20.44C106.007 20.4533 105.247 20.6467 104.58 21.02C103.927 21.3933 103.46 21.92 103.18 22.6V29H100.98V18.54H103.02V20.88C103.38 20.16 103.853 19.5867 104.44 19.16C105.027 18.72 105.647 18.48 106.3 18.44C106.433 18.44 106.54 18.44 106.62 18.44C106.713 18.44 106.793 18.4467 106.86 18.46V20.44ZM124.461 29H122.261V23.14C122.261 22.1667 122.101 21.4533 121.781 21C121.461 20.5467 120.994 20.32 120.381 20.32C119.767 20.32 119.194 20.5533 118.661 21.02C118.141 21.4733 117.774 22.0667 117.561 22.8V29H115.361V23.14C115.361 22.1667 115.201 21.4533 114.881 21C114.561 20.5467 114.101 20.32 113.501 20.32C112.887 20.32 112.314 20.5467 111.781 21C111.261 21.4533 110.887 22.0467 110.661 22.78V29H108.461V18.54H110.461V20.64C110.874 19.9067 111.414 19.3467 112.081 18.96C112.761 18.56 113.534 18.36 114.401 18.36C115.267 18.36 115.947 18.5867 116.441 19.04C116.947 19.4933 117.261 20.06 117.381 20.74C117.834 19.9667 118.387 19.38 119.041 18.98C119.707 18.5667 120.467 18.36 121.321 18.36C121.934 18.36 122.447 18.4733 122.861 18.7C123.274 18.9267 123.594 19.24 123.821 19.64C124.047 20.0267 124.207 20.48 124.301 21C124.407 21.5067 124.461 22.0467 124.461 22.62V29ZM131.736 29.2C130.922 29.2 130.182 29.06 129.516 28.78C128.862 28.4867 128.296 28.0933 127.816 27.6C127.336 27.0933 126.962 26.52 126.696 25.88C126.442 25.2267 126.316 24.5333 126.316 23.8C126.316 22.8133 126.542 21.9133 126.996 21.1C127.449 20.2733 128.082 19.6133 128.896 19.12C129.709 18.6133 130.662 18.36 131.756 18.36C132.849 18.36 133.789 18.6133 134.576 19.12C135.376 19.6133 135.996 20.2667 136.436 21.08C136.876 21.8933 137.096 22.7667 137.096 23.7C137.096 23.86 137.089 24.0133 137.076 24.16C137.062 24.2933 137.049 24.4067 137.036 24.5H128.656C128.696 25.1133 128.862 25.6533 129.156 26.12C129.462 26.5733 129.849 26.9333 130.316 27.2C130.782 27.4533 131.282 27.58 131.816 27.58C132.402 27.58 132.956 27.4333 133.476 27.14C134.009 26.8467 134.369 26.46 134.556 25.98L136.436 26.52C136.209 27.0267 135.862 27.4867 135.396 27.9C134.942 28.3 134.402 28.62 133.776 28.86C133.149 29.0867 132.469 29.2 131.736 29.2ZM128.596 23.04H134.916C134.876 22.44 134.702 21.9133 134.396 21.46C134.102 20.9933 133.722 20.6333 133.256 20.38C132.802 20.1133 132.296 19.98 131.736 19.98C131.189 19.98 130.682 20.1133 130.216 20.38C129.762 20.6333 129.389 20.9933 129.096 21.46C128.802 21.9133 128.636 22.44 128.596 23.04ZM138.91 14.4H141.11V25.98C141.11 26.5133 141.19 26.8533 141.35 27C141.51 27.1467 141.71 27.22 141.95 27.22C142.217 27.22 142.464 27.1933 142.69 27.14C142.93 27.0867 143.137 27.02 143.31 26.94L143.63 28.68C143.31 28.8133 142.93 28.9267 142.49 29.02C142.05 29.1133 141.657 29.16 141.31 29.16C140.564 29.16 139.977 28.9533 139.55 28.54C139.124 28.1133 138.91 27.5267 138.91 26.78V14.4ZM149.606 29.2C148.779 29.2 148.039 29.06 147.386 28.78C146.733 28.4867 146.166 28.0867 145.686 27.58C145.219 27.0733 144.859 26.5 144.606 25.86C144.353 25.2067 144.226 24.5133 144.226 23.78C144.226 23.0467 144.353 22.3533 144.606 21.7C144.859 21.0467 145.219 20.4733 145.686 19.98C146.166 19.4733 146.733 19.08 147.386 18.8C148.053 18.5067 148.793 18.36 149.606 18.36C150.419 18.36 151.153 18.5067 151.806 18.8C152.473 19.08 153.039 19.4733 153.506 19.98C153.986 20.4733 154.353 21.0467 154.606 21.7C154.859 22.3533 154.986 23.0467 154.986 23.78C154.986 24.5133 154.859 25.2067 154.606 25.86C154.353 26.5 153.986 27.0733 153.506 27.58C153.039 28.0867 152.473 28.4867 151.806 28.78C151.153 29.06 150.419 29.2 149.606 29.2ZM146.486 23.8C146.486 24.4667 146.626 25.0667 146.906 25.6C147.186 26.1333 147.559 26.5533 148.026 26.86C148.493 27.1667 149.019 27.32 149.606 27.32C150.179 27.32 150.699 27.1667 151.166 26.86C151.646 26.54 152.026 26.1133 152.306 25.58C152.586 25.0333 152.726 24.4333 152.726 23.78C152.726 23.1133 152.586 22.5133 152.306 21.98C152.026 21.4467 151.646 21.0267 151.166 20.72C150.699 20.4 150.179 20.24 149.606 20.24C149.019 20.24 148.493 20.4 148.026 20.72C147.559 21.04 147.186 21.4667 146.906 22C146.626 22.52 146.486 23.12 146.486 23.8ZM166.317 29H164.117V23.14C164.117 22.1667 163.957 21.4533 163.637 21C163.331 20.5467 162.871 20.32 162.257 20.32C161.831 20.32 161.404 20.4267 160.977 20.64C160.564 20.8533 160.191 21.1467 159.857 21.52C159.524 21.88 159.284 22.3 159.137 22.78V29H156.937V18.54H158.937V20.64C159.204 20.1733 159.551 19.7733 159.977 19.44C160.417 19.0933 160.911 18.8267 161.457 18.64C162.004 18.4533 162.584 18.36 163.197 18.36C163.824 18.36 164.337 18.4733 164.737 18.7C165.151 18.9267 165.471 19.24 165.697 19.64C165.937 20.0267 166.097 20.48 166.177 21C166.271 21.5067 166.317 22.0467 166.317 22.62V29Z" fill="white"/>
<defs>
<linearGradient id="paint0_linear_4_383" x1="29.2039" y1="38.6274" x2="38.6313" y2="22.2987" gradientUnits="userSpaceOnUse">
<stop stop-color="#A9208B"/>
<stop offset="1" stop-color="#492683"/>
</linearGradient>
<linearGradient id="paint1_linear_4_383" x1="28.4694" y1="32.3967" x2="35.3864" y2="20.4161" gradientUnits="userSpaceOnUse">
<stop stop-color="#F71475"/>
<stop offset="1" stop-color="#C9156C"/>
</linearGradient>
<linearGradient id="paint2_linear_4_383" x1="34.9778" y1="21.1028" x2="40.0886" y2="12.2505" gradientUnits="userSpaceOnUse">
<stop stop-color="#F71475"/>
<stop offset="1" stop-color="#FA7DA3"/>
</linearGradient>
<linearGradient id="paint3_linear_4_383" x1="20.8059" y1="12.9381" x2="25.9168" y2="4.08575" gradientUnits="userSpaceOnUse">
<stop stop-color="#F5A630"/>
<stop offset="1" stop-color="#D81B12"/>
</linearGradient>
<linearGradient id="paint4_linear_4_383" x1="14.3107" y1="24.2285" x2="21.2277" y2="12.2479" gradientUnits="userSpaceOnUse">
<stop stop-color="#FB9600"/>
<stop offset="1" stop-color="#FEBD00"/>
</linearGradient>
<linearGradient id="paint5_linear_4_383" x1="8.52721" y1="26.689" x2="17.9546" y2="10.3602" gradientUnits="userSpaceOnUse">
<stop stop-color="#F8E7C5"/>
<stop offset="1" stop-color="#FEBD00"/>
</linearGradient>
<linearGradient id="paint6_linear_4_383" x1="7.07784" y1="36.7309" x2="14.302" y2="24.2184" gradientUnits="userSpaceOnUse">
<stop stop-color="#B4E4E1"/>
<stop offset="1" stop-color="#2BC9BF"/>
</linearGradient>
<linearGradient id="paint7_linear_4_383" x1="14.1633" y1="40.822" x2="21.3875" y2="28.3095" gradientUnits="userSpaceOnUse">
<stop stop-color="#049D94"/>
<stop offset="1" stop-color="#08CEC1"/>
</linearGradient>
<linearGradient id="paint8_linear_4_383" x1="21.2365" y1="44.9128" x2="28.4606" y2="32.4002" gradientUnits="userSpaceOnUse">
<stop stop-color="#0C7069"/>
<stop offset="1" stop-color="#32AFA7"/>
</linearGradient>
</defs>
</svg>
