<svg width="1920" height="2280" viewBox="0 0 1920 2280" fill="none" xmlns="http://www.w3.org/2000/svg">
<rect x="-17" width="1920" height="2270" fill="url(#paint0_linear_149_27)"/>
<path d="M1983.94 673.241C1993.04 668.4 2003.96 668.4 2013.06 673.241L2166.09 754.631C2176.21 760.013 2182.53 770.539 2182.53 782V940.507C2182.53 951.968 2176.21 962.494 2166.09 967.876L2013.06 1049.27C2003.96 1054.11 1993.04 1054.11 1983.94 1049.27L1830.91 967.876C1820.79 962.494 1814.47 951.968 1814.47 940.507V782C1814.47 770.539 1820.79 760.013 1830.91 754.631L1983.94 673.241Z" fill="url(#paint1_linear_149_27)" fill-opacity="0.22"/>
<path d="M1842.24 530.636C1851.71 525.283 1863.29 525.283 1872.76 530.636L2025.79 617.162C2035.52 622.662 2041.53 632.972 2041.53 644.147V816.087C2041.53 827.262 2035.52 837.572 2025.79 843.072L1872.76 929.598C1863.29 934.951 1851.71 934.951 1842.24 929.598L1689.21 843.072C1679.48 837.572 1673.47 827.262 1673.47 816.087V644.147C1673.47 632.972 1679.48 622.662 1689.21 617.162L1842.24 530.636Z" fill="url(#paint2_linear_149_27)" fill-opacity="0.22"/>
<g filter="url(#filter0_f_149_27)">
<path d="M1040.4 1035.77C971.529 960.29 793.295 976.829 691.788 1007.32C461.087 1076.61 182.563 1506.4 390.757 1313.53C561.999 1154.89 704.855 1219.86 888.673 1331.37C1035.73 1420.59 1421.64 1109.76 1596.22 943.188C1319.49 1127.76 1126.49 1130.11 1040.4 1035.77Z" fill="#FF5788" fill-opacity="0.34"/>
</g>
<path d="M98.9433 1645.36C108.044 1640.52 118.956 1640.52 128.057 1645.36L281.087 1726.75C291.206 1732.13 297.53 1742.66 297.53 1754.12V1912.63C297.53 1924.09 291.206 1934.62 281.087 1940L128.057 2021.39C118.956 2026.23 108.044 2026.23 98.9433 2021.39L-54.0871 1940C-64.2064 1934.62 -70.5304 1924.09 -70.5304 1912.63V1754.12C-70.5304 1742.66 -64.2064 1732.13 -54.0871 1726.75L98.9433 1645.36Z" fill="url(#paint3_linear_149_27)" fill-opacity="0.14"/>
<path d="M-42.7579 1502.76C-33.2903 1497.4 -21.7097 1497.4 -12.2421 1502.76L140.788 1589.28C150.516 1594.78 156.53 1605.09 156.53 1616.27V1788.21C156.53 1799.38 150.516 1809.69 140.788 1815.19L-12.2421 1901.72C-21.7097 1907.07 -33.2903 1907.07 -42.7579 1901.72L-195.788 1815.19C-205.516 1809.69 -211.53 1799.38 -211.53 1788.21V1616.27C-211.53 1605.09 -205.516 1594.78 -195.788 1589.28L-42.7579 1502.76Z" fill="url(#paint4_linear_149_27)" fill-opacity="0.14"/>
<ellipse cx="958.5" cy="1296" rx="984" ry="3.50005" transform="rotate(-90 958.5 1296)" fill="url(#paint5_radial_149_27)"/>
<ellipse cx="958.5" cy="982.412" rx="959.5" ry="3.32593" fill="url(#paint6_radial_149_27)"/>
<ellipse cx="958.5" cy="1524.06" rx="959.5" ry="3.32593" fill="url(#paint7_radial_149_27)"/>
<defs>
<filter id="filter0_f_149_27" x="38.5123" y="664.188" width="1836.71" height="977.703" filterUnits="userSpaceOnUse" color-interpolation-filters="sRGB">
<feFlood flood-opacity="0" result="BackgroundImageFix"/>
<feBlend mode="normal" in="SourceGraphic" in2="BackgroundImageFix" result="shape"/>
<feGaussianBlur stdDeviation="139.5" result="effect1_foregroundBlur_149_27"/>
</filter>
<linearGradient id="paint0_linear_149_27" x1="943" y1="0" x2="943" y2="2270" gradientUnits="userSpaceOnUse">
<stop stop-color="#0D0408"/>
<stop offset="1" stop-color="#030303"/>
</linearGradient>
<linearGradient id="paint1_linear_149_27" x1="1998.5" y1="665.499" x2="1998.5" y2="1057.01" gradientUnits="userSpaceOnUse">
<stop stop-color="white"/>
<stop offset="1" stop-color="white" stop-opacity="0"/>
</linearGradient>
<linearGradient id="paint2_linear_149_27" x1="1857.5" y1="522.009" x2="1857.5" y2="938.225" gradientUnits="userSpaceOnUse">
<stop stop-color="white"/>
<stop offset="1" stop-color="white" stop-opacity="0"/>
</linearGradient>
<linearGradient id="paint3_linear_149_27" x1="113.5" y1="1637.62" x2="113.5" y2="2029.13" gradientUnits="userSpaceOnUse">
<stop stop-color="white"/>
<stop offset="1" stop-color="white" stop-opacity="0"/>
</linearGradient>
<linearGradient id="paint4_linear_149_27" x1="-27.5" y1="1494.13" x2="-27.5" y2="1910.35" gradientUnits="userSpaceOnUse">
<stop stop-color="white"/>
<stop offset="1" stop-color="white" stop-opacity="0"/>
</linearGradient>
<radialGradient id="paint5_radial_149_27" cx="0" cy="0" r="1" gradientUnits="userSpaceOnUse" gradientTransform="translate(958.5 1296) rotate(90) scale(2.77911 781.316)">
<stop stop-color="#FFF4F4"/>
<stop offset="1" stop-color="#300000" stop-opacity="0"/>
</radialGradient>
<radialGradient id="paint6_radial_149_27" cx="0" cy="0" r="1" gradientUnits="userSpaceOnUse" gradientTransform="translate(958.5 982.412) rotate(90) scale(2.64085 761.862)">
<stop stop-color="#FFF4F4"/>
<stop offset="1" stop-color="#300000" stop-opacity="0"/>
</radialGradient>
<radialGradient id="paint7_radial_149_27" cx="0" cy="0" r="1" gradientUnits="userSpaceOnUse" gradientTransform="translate(958.5 1524.06) rotate(90) scale(2.64085 761.862)">
<stop stop-color="#FFF4F4"/>
<stop offset="1" stop-color="#300000" stop-opacity="0"/>
</radialGradient>
</defs>
</svg>
