<svg width="423" height="91" viewBox="0 0 423 91" fill="none" xmlns="http://www.w3.org/2000/svg">
<path d="M21.2898 36.5C23.9565 36.5 26.2898 36.1833 28.2898 35.55C30.2898 34.8833 31.9565 33.9667 33.2898 32.8C34.6232 31.6333 35.6232 30.25 36.2898 28.65C36.9565 27.0167 37.2898 25.2167 37.2898 23.25C37.2898 19.3167 35.9898 16.3167 33.3898 14.25C30.7898 12.1833 26.8565 11.15 21.5898 11.15H12.0898V36.5H21.2898ZM55.1898 74H44.7398C42.6732 74 41.1732 73.2 40.2398 71.6L23.4398 47.35C22.8732 46.5167 22.2565 45.9167 21.5898 45.55C20.9232 45.1833 19.9232 45 18.5898 45H12.0898V74H0.389844V2H21.5898C26.3232 2 30.3898 2.48333 33.7898 3.45C37.2232 4.41666 40.0398 5.8 42.2398 7.6C44.4398 9.36666 46.0565 11.5 47.0898 14C48.1565 16.5 48.6898 19.2833 48.6898 22.35C48.6898 24.85 48.3065 27.1833 47.5398 29.35C46.8065 31.5167 45.7232 33.4833 44.2898 35.25C42.8898 37.0167 41.1565 38.55 39.0898 39.85C37.0232 41.15 34.6732 42.1667 32.0398 42.9C33.4732 43.7667 34.7065 44.9833 35.7398 46.55L55.1898 74ZM91.9961 42.75C91.9961 40.95 91.7294 39.2833 91.1961 37.75C90.6961 36.1833 89.9461 34.8333 88.9461 33.7C87.9461 32.5333 86.6961 31.6333 85.1961 31C83.7294 30.3333 82.0294 30 80.0961 30C76.1961 30 73.1294 31.1167 70.8961 33.35C68.6628 35.5833 67.2461 38.7167 66.6461 42.75H91.9961ZM66.3461 49.35C66.4794 52.25 66.9294 54.7667 67.6961 56.9C68.4628 59 69.4794 60.75 70.7461 62.15C72.0461 63.55 73.5794 64.6 75.3461 65.3C77.1461 65.9667 79.1461 66.3 81.3461 66.3C83.4461 66.3 85.2628 66.0667 86.7961 65.6C88.3294 65.1 89.6628 64.5667 90.7961 64C91.9294 63.4 92.8961 62.8667 93.6961 62.4C94.4961 61.9 95.2294 61.65 95.8961 61.65C96.7628 61.65 97.4294 61.9833 97.8961 62.65L100.946 66.6C99.6794 68.1 98.2461 69.3667 96.6461 70.4C95.0461 71.4333 93.3461 72.2833 91.5461 72.95C89.7461 73.5833 87.8961 74.0333 85.9961 74.3C84.0961 74.6 82.2461 74.75 80.4461 74.75C76.9128 74.75 73.6294 74.1667 70.5961 73C67.5961 71.8 64.9794 70.05 62.7461 67.75C60.5461 65.45 58.8128 62.6 57.5461 59.2C56.3128 55.8 55.6961 51.8833 55.6961 47.45C55.6961 43.9167 56.2461 40.6167 57.3461 37.55C58.4794 34.4833 60.0794 31.8167 62.1461 29.55C64.2461 27.2833 66.7794 25.5 69.7461 24.2C72.7461 22.8667 76.1294 22.2 79.8961 22.2C83.0294 22.2 85.9294 22.7167 88.5961 23.75C91.2628 24.75 93.5628 26.2333 95.4961 28.2C97.4294 30.1667 98.9294 32.5833 99.9961 35.45C101.096 38.2833 101.646 41.5167 101.646 45.15C101.646 46.8167 101.463 47.9333 101.096 48.5C100.729 49.0667 100.063 49.35 99.0961 49.35H66.3461ZM122.621 -9.53674e-07V74H111.871V-9.53674e-07H122.621ZM147.09 23V74H136.34V23H147.09ZM148.89 7.6C148.89 8.56666 148.69 9.48333 148.29 10.35C147.923 11.2167 147.407 11.9833 146.74 12.65C146.073 13.2833 145.29 13.8 144.39 14.2C143.523 14.5667 142.59 14.75 141.59 14.75C140.623 14.75 139.707 14.5667 138.84 14.2C138.007 13.8 137.273 13.2833 136.64 12.65C136.007 11.9833 135.49 11.2167 135.09 10.35C134.723 9.48333 134.54 8.56666 134.54 7.6C134.54 6.6 134.723 5.66666 135.09 4.8C135.49 3.93333 136.007 3.18333 136.64 2.55C137.273 1.88333 138.007 1.36666 138.84 0.999998C139.707 0.599995 140.623 0.399994 141.59 0.399994C142.59 0.399994 143.523 0.599995 144.39 0.999998C145.29 1.36666 146.073 1.88333 146.74 2.55C147.407 3.18333 147.923 3.93333 148.29 4.8C148.69 5.66666 148.89 6.6 148.89 7.6ZM187.847 51.7C184.014 51.8333 180.78 52.15 178.147 52.65C175.514 53.1167 173.38 53.7333 171.747 54.5C170.114 55.2333 168.93 56.1167 168.197 57.15C167.497 58.1833 167.147 59.3167 167.147 60.55C167.147 61.75 167.33 62.7833 167.697 63.65C168.097 64.4833 168.63 65.1833 169.297 65.75C169.997 66.2833 170.797 66.6833 171.697 66.95C172.63 67.1833 173.647 67.3 174.747 67.3C177.547 67.3 179.947 66.7833 181.947 65.75C183.98 64.6833 185.947 63.15 187.847 61.15V51.7ZM159.347 30.1C165.114 24.7333 171.98 22.05 179.947 22.05C182.88 22.05 185.48 22.5333 187.747 23.5C190.047 24.4333 191.964 25.7667 193.497 27.5C195.064 29.2333 196.247 31.3 197.047 33.7C197.88 36.0667 198.297 38.7 198.297 41.6V74H193.497C192.464 74 191.68 73.85 191.147 73.55C190.614 73.2167 190.164 72.5667 189.797 71.6L188.747 67.45C187.447 68.6167 186.164 69.6667 184.897 70.6C183.63 71.5 182.314 72.2667 180.947 72.9C179.614 73.5333 178.164 74 176.597 74.3C175.064 74.6333 173.364 74.8 171.497 74.8C169.43 74.8 167.497 74.5167 165.697 73.95C163.93 73.3833 162.397 72.5333 161.097 71.4C159.797 70.2333 158.764 68.8 157.997 67.1C157.264 65.4 156.897 63.4 156.897 61.1C156.897 59.1333 157.414 57.2167 158.447 55.35C159.514 53.4833 161.247 51.8167 163.647 50.35C166.08 48.85 169.264 47.6167 173.197 46.65C177.164 45.6833 182.047 45.1333 187.847 45V41.6C187.847 37.9333 187.064 35.2 185.497 33.4C183.93 31.6 181.63 30.7 178.597 30.7C176.53 30.7 174.797 30.9667 173.397 31.5C171.997 32 170.78 32.55 169.747 33.15C168.714 33.75 167.797 34.3167 166.997 34.85C166.197 35.35 165.347 35.6 164.447 35.6C163.714 35.6 163.08 35.4167 162.547 35.05C162.047 34.65 161.63 34.1667 161.297 33.6L159.347 30.1ZM221.64 61.2C223.14 63.1333 224.773 64.5 226.54 65.3C228.34 66.0667 230.29 66.45 232.39 66.45C236.623 66.45 239.923 64.9167 242.29 61.85C244.657 58.7833 245.84 54.0333 245.84 47.6C245.84 41.7333 244.807 37.45 242.74 34.75C240.707 32.05 237.79 30.7 233.99 30.7C231.357 30.7 229.057 31.3 227.09 32.5C225.157 33.6667 223.34 35.35 221.64 37.55V61.2ZM221.64 29.75C223.74 27.45 226.09 25.6167 228.69 24.25C231.29 22.8833 234.257 22.2 237.59 22.2C240.557 22.2 243.223 22.7833 245.59 23.95C247.99 25.0833 250.023 26.7333 251.69 28.9C253.357 31.0667 254.64 33.7 255.54 36.8C256.44 39.8667 256.89 43.3333 256.89 47.2C256.89 51.3333 256.373 55.1 255.34 58.5C254.34 61.8667 252.89 64.7667 250.99 67.2C249.09 69.6 246.79 71.4667 244.09 72.8C241.39 74.1 238.373 74.75 235.04 74.75C233.407 74.75 231.923 74.5833 230.59 74.25C229.257 73.95 228.023 73.5 226.89 72.9C225.757 72.3 224.707 71.5833 223.74 70.75C222.807 69.9167 221.907 68.9667 221.04 67.9L220.59 71.85C220.423 72.6167 220.123 73.1667 219.69 73.5C219.257 73.8333 218.657 74 217.89 74H210.89V-9.53674e-07H221.64V29.75ZM278.535 23V74H267.785V23H278.535ZM280.335 7.6C280.335 8.56666 280.135 9.48333 279.735 10.35C279.368 11.2167 278.852 11.9833 278.185 12.65C277.518 13.2833 276.735 13.8 275.835 14.2C274.968 14.5667 274.035 14.75 273.035 14.75C272.068 14.75 271.152 14.5667 270.285 14.2C269.452 13.8 268.718 13.2833 268.085 12.65C267.452 11.9833 266.935 11.2167 266.535 10.35C266.168 9.48333 265.985 8.56666 265.985 7.6C265.985 6.6 266.168 5.66666 266.535 4.8C266.935 3.93333 267.452 3.18333 268.085 2.55C268.718 1.88333 269.452 1.36666 270.285 0.999998C271.152 0.599995 272.068 0.399994 273.035 0.399994C274.035 0.399994 274.968 0.599995 275.835 0.999998C276.735 1.36666 277.518 1.88333 278.185 2.55C278.852 3.18333 279.368 3.93333 279.735 4.8C280.135 5.66666 280.335 6.6 280.335 7.6ZM302.992 -9.53674e-07V74H292.242V-9.53674e-07H302.992ZM327.461 23V74H316.711V23H327.461ZM329.261 7.6C329.261 8.56666 329.061 9.48333 328.661 10.35C328.294 11.2167 327.778 11.9833 327.111 12.65C326.444 13.2833 325.661 13.8 324.761 14.2C323.894 14.5667 322.961 14.75 321.961 14.75C320.994 14.75 320.078 14.5667 319.211 14.2C318.378 13.8 317.644 13.2833 317.011 12.65C316.378 11.9833 315.861 11.2167 315.461 10.35C315.094 9.48333 314.911 8.56666 314.911 7.6C314.911 6.6 315.094 5.66666 315.461 4.8C315.861 3.93333 316.378 3.18333 317.011 2.55C317.644 1.88333 318.378 1.36666 319.211 0.999998C320.078 0.599995 320.994 0.399994 321.961 0.399994C322.961 0.399994 323.894 0.599995 324.761 0.999998C325.661 1.36666 326.444 1.88333 327.111 2.55C327.778 3.18333 328.294 3.93333 328.661 4.8C329.061 5.66666 329.261 6.6 329.261 7.6ZM357.318 74.8C353.085 74.8 349.818 73.6167 347.518 71.25C345.251 68.85 344.118 65.4833 344.118 61.15V31.45H338.518C337.918 31.45 337.401 31.2667 336.968 30.9C336.535 30.5 336.318 29.9167 336.318 29.15V24.8L344.568 23.6L346.918 8.85C347.085 8.28333 347.368 7.83333 347.768 7.5C348.168 7.13333 348.701 6.95 349.368 6.95H354.868V23.7H369.018V31.45H354.868V60.4C354.868 62.2333 355.318 63.6333 356.218 64.6C357.118 65.5667 358.318 66.05 359.818 66.05C360.651 66.05 361.368 65.95 361.968 65.75C362.568 65.5167 363.085 65.2833 363.518 65.05C363.951 64.7833 364.318 64.55 364.618 64.35C364.951 64.1167 365.268 64 365.568 64C366.168 64 366.651 64.3333 367.018 65L370.218 70.25C368.551 71.7167 366.585 72.85 364.318 73.65C362.051 74.4167 359.718 74.8 357.318 74.8ZM422.741 23L394.641 88.5C394.275 89.2667 393.825 89.8667 393.291 90.3C392.791 90.7333 392.008 90.95 390.941 90.95H382.991L392.391 70.55L371.591 23H380.941C381.841 23 382.525 23.2167 382.991 23.65C383.491 24.05 383.858 24.5333 384.091 25.1L396.241 54.05C396.541 54.8833 396.808 55.7167 397.041 56.55C397.308 57.35 397.558 58.1833 397.791 59.05C398.058 58.1833 398.325 57.3333 398.591 56.5C398.858 55.6667 399.158 54.8333 399.491 54L411.141 25.1C411.375 24.5 411.758 24 412.291 23.6C412.858 23.2 413.475 23 414.141 23H422.741Z" fill="url(#paint0_linear_4_100)"/>
<defs>
<linearGradient id="paint0_linear_4_100" x1="495.5" y1="330" x2="-129.5" y2="159" gradientUnits="userSpaceOnUse">
<stop offset="0.251241" stop-color="#01FF8C"/>
<stop offset="1" stop-color="white"/>
</linearGradient>
</defs>
</svg>
