<svg width="182" height="18" viewBox="0 0 182 18" fill="none" xmlns="http://www.w3.org/2000/svg">
<path d="M8.8 8.772C8.8 9.77467 8.69067 10.644 8.472 11.38C8.25867 12.1107 7.96533 12.716 7.592 13.196C7.21867 13.676 6.776 14.0333 6.264 14.268C5.75733 14.5027 5.21333 14.62 4.632 14.62C4.04533 14.62 3.49867 14.5027 2.992 14.268C2.49067 14.0333 2.05333 13.676 1.68 13.196C1.30667 12.716 1.01333 12.1107 0.8 11.38C0.586667 10.644 0.48 9.77467 0.48 8.772C0.48 7.76933 0.586667 6.9 0.8 6.164C1.01333 5.428 1.30667 4.82 1.68 4.34C2.05333 3.85467 2.49067 3.49467 2.992 3.26C3.49867 3.02533 4.04533 2.908 4.632 2.908C5.21333 2.908 5.75733 3.02533 6.264 3.26C6.776 3.49467 7.21867 3.85467 7.592 4.34C7.96533 4.82 8.25867 5.428 8.472 6.164C8.69067 6.9 8.8 7.76933 8.8 8.772ZM7.32 8.772C7.32 7.89733 7.24533 7.164 7.096 6.572C6.952 5.97467 6.75467 5.49467 6.504 5.132C6.25867 4.76933 5.97333 4.51067 5.648 4.356C5.32267 4.196 4.984 4.116 4.632 4.116C4.28 4.116 3.94133 4.196 3.616 4.356C3.29067 4.51067 3.00533 4.76933 2.76 5.132C2.51467 5.49467 2.31733 5.97467 2.168 6.572C2.024 7.164 1.952 7.89733 1.952 8.772C1.952 9.64667 2.024 10.38 2.168 10.972C2.31733 11.564 2.51467 12.0413 2.76 12.404C3.00533 12.7667 3.29067 13.028 3.616 13.188C3.94133 13.3427 4.28 13.42 4.632 13.42C4.984 13.42 5.32267 13.3427 5.648 13.188C5.97333 13.028 6.25867 12.7667 6.504 12.404C6.75467 12.0413 6.952 11.564 7.096 10.972C7.24533 10.38 7.32 9.64667 7.32 8.772ZM17.4253 13.412V14.5H11.2812V13.412H13.7373V5.596C13.7373 5.36133 13.7453 5.124 13.7613 4.884L11.7213 6.636C11.6519 6.69467 11.5826 6.732 11.5133 6.748C11.4439 6.75867 11.3799 6.75867 11.3213 6.748C11.2626 6.73733 11.2066 6.716 11.1533 6.684C11.1053 6.652 11.0679 6.61733 11.0413 6.58L10.5933 5.964L14.0093 3.012H15.1693V13.412H17.4253Z" fill="white"/>
<rect x="35" y="8" width="32" height="2" fill="#049D94"/>
<rect x="75" y="8" width="32" height="2" fill="#8C8C8F"/>
<rect x="115" y="8" width="32" height="2" fill="#8C8C8F"/>
<path d="M171.8 8.772C171.8 9.77467 171.691 10.644 171.472 11.38C171.259 12.1107 170.965 12.716 170.592 13.196C170.219 13.676 169.776 14.0333 169.264 14.268C168.757 14.5027 168.213 14.62 167.632 14.62C167.045 14.62 166.499 14.5027 165.992 14.268C165.491 14.0333 165.053 13.676 164.68 13.196C164.307 12.716 164.013 12.1107 163.8 11.38C163.587 10.644 163.48 9.77467 163.48 8.772C163.48 7.76933 163.587 6.9 163.8 6.164C164.013 5.428 164.307 4.82 164.68 4.34C165.053 3.85467 165.491 3.49467 165.992 3.26C166.499 3.02533 167.045 2.908 167.632 2.908C168.213 2.908 168.757 3.02533 169.264 3.26C169.776 3.49467 170.219 3.85467 170.592 4.34C170.965 4.82 171.259 5.428 171.472 6.164C171.691 6.9 171.8 7.76933 171.8 8.772ZM170.32 8.772C170.32 7.89733 170.245 7.164 170.096 6.572C169.952 5.97467 169.755 5.49467 169.504 5.132C169.259 4.76933 168.973 4.51067 168.648 4.356C168.323 4.196 167.984 4.116 167.632 4.116C167.28 4.116 166.941 4.196 166.616 4.356C166.291 4.51067 166.005 4.76933 165.76 5.132C165.515 5.49467 165.317 5.97467 165.168 6.572C165.024 7.164 164.952 7.89733 164.952 8.772C164.952 9.64667 165.024 10.38 165.168 10.972C165.317 11.564 165.515 12.0413 165.76 12.404C166.005 12.7667 166.291 13.028 166.616 13.188C166.941 13.3427 167.28 13.42 167.632 13.42C167.984 13.42 168.323 13.3427 168.648 13.188C168.973 13.028 169.259 12.7667 169.504 12.404C169.755 12.0413 169.952 11.564 170.096 10.972C170.245 10.38 170.32 9.64667 170.32 8.772ZM178.121 10.364V5.636C178.121 5.49733 178.127 5.34533 178.137 5.18C178.148 5.01467 178.164 4.84667 178.185 4.676L174.009 10.364H178.121ZM181.105 10.364V11.18C181.105 11.2653 181.079 11.3373 181.025 11.396C180.977 11.4547 180.9 11.484 180.793 11.484H179.369V14.5H178.121V11.484H173.033C172.927 11.484 172.833 11.4547 172.753 11.396C172.679 11.332 172.631 11.2547 172.609 11.164L172.465 10.436L178.041 3.036H179.369V10.364H181.105Z" fill="white"/>
</svg>
