<svg width="816" height="193" viewBox="0 0 816 193" fill="none" xmlns="http://www.w3.org/2000/svg">
<path d="M110.802 9.6H85.9516V76H80.8016V9.6H55.8016V5.25H110.802V9.6ZM124.383 34.65C126.683 31.85 129.299 29.6167 132.233 27.95C135.199 26.2833 138.516 25.45 142.183 25.45C144.916 25.45 147.316 25.8833 149.383 26.75C151.483 27.6167 153.216 28.8667 154.583 30.5C155.949 32.1333 156.983 34.1 157.683 36.4C158.383 38.7 158.733 41.3 158.733 44.2V76H153.933V44.2C153.933 39.5333 152.866 35.8833 150.733 33.25C148.599 30.5833 145.349 29.25 140.983 29.25C137.749 29.25 134.716 30.0833 131.883 31.75C129.083 33.3833 126.583 35.6667 124.383 38.6V76H119.583V3.25H124.383V34.65ZM209.463 46.1C209.463 43.4333 209.08 41.05 208.313 38.95C207.58 36.8167 206.53 35.0167 205.163 33.55C203.797 32.0833 202.163 30.9667 200.263 30.2C198.397 29.4 196.33 29 194.063 29C191.497 29 189.197 29.4 187.163 30.2C185.13 31 183.363 32.15 181.863 33.65C180.397 35.15 179.213 36.95 178.313 39.05C177.413 41.15 176.813 43.5 176.513 46.1H209.463ZM176.263 49.15V50.1C176.263 53.8333 176.697 57.1167 177.563 59.95C178.43 62.7833 179.663 65.1667 181.263 67.1C182.863 69 184.797 70.4333 187.063 71.4C189.33 72.3667 191.863 72.85 194.663 72.85C197.163 72.85 199.33 72.5833 201.163 72.05C202.997 71.4833 204.53 70.8667 205.763 70.2C207.03 69.5 208.03 68.8833 208.763 68.35C209.497 67.7833 210.03 67.5 210.363 67.5C210.797 67.5 211.13 67.6667 211.363 68L212.663 69.6C211.863 70.6 210.797 71.5333 209.463 72.4C208.163 73.2667 206.697 74.0167 205.063 74.65C203.463 75.25 201.73 75.7333 199.863 76.1C198.03 76.4667 196.18 76.65 194.313 76.65C190.913 76.65 187.813 76.0667 185.013 74.9C182.213 73.7 179.813 71.9667 177.813 69.7C175.813 67.4333 174.263 64.6667 173.163 61.4C172.097 58.1 171.563 54.3333 171.563 50.1C171.563 46.5333 172.063 43.25 173.063 40.25C174.097 37.2167 175.563 34.6167 177.463 32.45C179.397 30.25 181.747 28.5333 184.513 27.3C187.313 26.0667 190.48 25.45 194.013 25.45C196.813 25.45 199.413 25.9333 201.813 26.9C204.213 27.8667 206.297 29.2833 208.063 31.15C209.83 32.9833 211.213 35.25 212.213 37.95C213.247 40.65 213.763 43.75 213.763 47.25C213.763 47.9833 213.663 48.4833 213.463 48.75C213.263 49.0167 212.93 49.15 212.463 49.15H176.263ZM317.462 26.25L300.862 76H297.312C296.745 76 296.362 75.65 296.162 74.95L282.562 34.55C282.395 34.05 282.245 33.55 282.112 33.05C281.978 32.55 281.862 32.05 281.762 31.55C281.595 32.55 281.345 33.55 281.012 34.55L267.212 74.95C267.012 75.65 266.612 76 266.012 76H262.612L246.012 26.25H249.612C250.078 26.25 250.462 26.3833 250.762 26.65C251.062 26.8833 251.262 27.15 251.362 27.45L263.912 66.7C264.112 67.4667 264.295 68.2167 264.462 68.95C264.628 69.65 264.762 70.35 264.862 71.05C265.062 70.35 265.262 69.65 265.462 68.95C265.662 68.2167 265.895 67.4667 266.162 66.7L279.462 27.1C279.695 26.3667 280.162 26 280.862 26H282.812C283.545 26 284.028 26.3667 284.262 27.1L297.462 66.7C297.695 67.4667 297.912 68.2 298.112 68.9C298.312 69.6 298.495 70.3 298.662 71C298.795 70.3 298.928 69.6 299.062 68.9C299.228 68.2 299.428 67.4667 299.662 66.7L312.312 27.45C312.445 27.0833 312.662 26.8 312.962 26.6C313.262 26.3667 313.612 26.25 314.012 26.25H317.462ZM347.291 25.45C350.857 25.45 354.041 26.0667 356.841 27.3C359.674 28.5 362.057 30.2167 363.991 32.45C365.924 34.6833 367.391 37.3833 368.391 40.55C369.424 43.6833 369.941 47.2 369.941 51.1C369.941 55 369.424 58.5167 368.391 61.65C367.391 64.7833 365.924 67.4667 363.991 69.7C362.057 71.9333 359.674 73.65 356.841 74.85C354.041 76.05 350.857 76.65 347.291 76.65C343.724 76.65 340.524 76.05 337.691 74.85C334.891 73.65 332.507 71.9333 330.541 69.7C328.607 67.4667 327.124 64.7833 326.091 61.65C325.091 58.5167 324.591 55 324.591 51.1C324.591 47.2 325.091 43.6833 326.091 40.55C327.124 37.3833 328.607 34.6833 330.541 32.45C332.507 30.2167 334.891 28.5 337.691 27.3C340.524 26.0667 343.724 25.45 347.291 25.45ZM347.291 72.9C350.257 72.9 352.841 72.4 355.041 71.4C357.274 70.3667 359.124 68.9 360.591 67C362.091 65.1 363.207 62.8167 363.941 60.15C364.674 57.45 365.041 54.4333 365.041 51.1C365.041 47.8 364.674 44.8 363.941 42.1C363.207 39.4 362.091 37.1 360.591 35.2C359.124 33.2667 357.274 31.7833 355.041 30.75C352.841 29.7167 350.257 29.2 347.291 29.2C344.324 29.2 341.724 29.7167 339.491 30.75C337.291 31.7833 335.441 33.2667 333.941 35.2C332.474 37.1 331.357 39.4 330.591 42.1C329.857 44.8 329.491 47.8 329.491 51.1C329.491 54.4333 329.857 57.45 330.591 60.15C331.357 62.8167 332.474 65.1 333.941 67C335.441 68.9 337.291 70.3667 339.491 71.4C341.724 72.4 344.324 72.9 347.291 72.9ZM387.902 38.25C388.669 36.2167 389.536 34.4167 390.502 32.85C391.502 31.25 392.636 29.9 393.902 28.8C395.202 27.7 396.636 26.8667 398.202 26.3C399.802 25.7 401.569 25.4 403.502 25.4C404.536 25.4 405.552 25.5 406.552 25.7C407.552 25.8667 408.436 26.1833 409.202 26.65L408.802 29.95C408.636 30.4833 408.319 30.75 407.852 30.75C407.452 30.75 406.836 30.6333 406.002 30.4C405.202 30.1667 404.136 30.05 402.802 30.05C400.869 30.05 399.152 30.35 397.652 30.95C396.186 31.5167 394.852 32.3833 393.652 33.55C392.486 34.7167 391.452 36.1667 390.552 37.9C389.686 39.6 388.886 41.5667 388.152 43.8V76H383.352V26.25H385.902C386.469 26.25 386.869 26.3667 387.102 26.6C387.336 26.8333 387.486 27.2333 387.552 27.8L387.902 38.25ZM423.954 3.25V76H419.154V3.25H423.954ZM474.724 36.95C472.824 34.0833 470.708 32.0667 468.374 30.9C466.074 29.7333 463.441 29.15 460.474 29.15C457.541 29.15 454.974 29.6833 452.774 30.75C450.574 31.8167 448.724 33.3333 447.224 35.3C445.758 37.2333 444.641 39.5667 443.874 42.3C443.141 45 442.774 47.9833 442.774 51.25C442.774 58.65 444.124 64.1 446.824 67.6C449.558 71.0667 453.491 72.8 458.624 72.8C461.891 72.8 464.874 71.95 467.574 70.25C470.274 68.55 472.658 66.1667 474.724 63.1V36.95ZM479.474 3.25V76H476.874C476.008 76 475.508 75.5667 475.374 74.7L474.874 66.85C472.674 69.85 470.108 72.2333 467.174 74C464.241 75.7667 460.941 76.65 457.274 76.65C451.141 76.65 446.374 74.5333 442.974 70.3C439.574 66.0667 437.874 59.7167 437.874 51.25C437.874 47.6167 438.341 44.2333 439.274 41.1C440.241 37.9333 441.641 35.2 443.474 32.9C445.308 30.5667 447.558 28.7333 450.224 27.4C452.924 26.0667 456.024 25.4 459.524 25.4C462.891 25.4 465.808 26.0167 468.274 27.25C470.741 28.4833 472.891 30.3167 474.724 32.75V3.25H479.474ZM499.252 0.449998C500.386 2.48333 501.152 4.66666 501.552 6.99999C501.986 9.29999 502.052 11.6 501.752 13.9C501.486 16.2 500.852 18.4167 499.852 20.55C498.852 22.65 497.536 24.5 495.902 26.1L494.552 25.2C494.286 25 494.152 24.7667 494.152 24.5C494.186 24.2333 494.286 24.0167 494.452 23.85C495.519 22.45 496.336 20.8833 496.902 19.15C497.502 17.4167 497.852 15.65 497.952 13.85C498.052 12.05 497.902 10.2667 497.502 8.5C497.136 6.73333 496.536 5.11666 495.702 3.65C495.169 2.71667 495.319 2.06666 496.152 1.7L499.252 0.449998ZM541.562 32.4C541.295 32.8667 540.912 33.1 540.412 33.1C540.045 33.1 539.578 32.9 539.012 32.5C538.445 32.0667 537.678 31.6 536.712 31.1C535.778 30.5667 534.612 30.1 533.212 29.7C531.812 29.2667 530.112 29.05 528.112 29.05C526.312 29.05 524.662 29.3167 523.162 29.85C521.695 30.35 520.428 31.0333 519.362 31.9C518.328 32.7667 517.528 33.7833 516.962 34.95C516.395 36.0833 516.112 37.2833 516.112 38.55C516.112 40.1167 516.512 41.4167 517.312 42.45C518.112 43.4833 519.145 44.3667 520.412 45.1C521.712 45.8333 523.195 46.4667 524.862 47C526.528 47.5333 528.212 48.0667 529.912 48.6C531.645 49.1333 533.345 49.7333 535.012 50.4C536.678 51.0333 538.145 51.8333 539.412 52.8C540.712 53.7667 541.762 54.95 542.562 56.35C543.362 57.75 543.762 59.45 543.762 61.45C543.762 63.6167 543.378 65.6333 542.612 67.5C541.845 69.3667 540.712 70.9833 539.212 72.35C537.745 73.7167 535.928 74.8 533.762 75.6C531.595 76.4 529.112 76.8 526.312 76.8C522.812 76.8 519.795 76.25 517.262 75.15C514.728 74.0167 512.462 72.55 510.462 70.75L511.562 69.05C511.728 68.7833 511.912 68.5833 512.112 68.45C512.345 68.3167 512.645 68.25 513.012 68.25C513.445 68.25 513.962 68.5167 514.562 69.05C515.195 69.5833 516.028 70.1667 517.062 70.8C518.095 71.4 519.362 71.9667 520.862 72.5C522.395 73.0333 524.278 73.3 526.512 73.3C528.612 73.3 530.462 73.0167 532.062 72.45C533.662 71.85 534.995 71.05 536.062 70.05C537.128 69.05 537.928 67.8833 538.462 66.55C539.028 65.1833 539.312 63.75 539.312 62.25C539.312 60.5833 538.912 59.2 538.112 58.1C537.312 57 536.262 56.0667 534.962 55.3C533.662 54.5333 532.178 53.8833 530.512 53.35C528.878 52.8167 527.195 52.2833 525.462 51.75C523.728 51.2167 522.028 50.6333 520.362 50C518.728 49.3667 517.262 48.5667 515.962 47.6C514.662 46.6333 513.612 45.4667 512.812 44.1C512.012 42.7 511.612 40.9667 511.612 38.9C511.612 37.1333 511.995 35.4333 512.762 33.8C513.528 32.1667 514.612 30.7333 516.012 29.5C517.445 28.2667 519.178 27.2833 521.212 26.55C523.245 25.8167 525.528 25.45 528.062 25.45C531.095 25.45 533.778 25.8833 536.112 26.75C538.478 27.6167 540.628 28.95 542.562 30.75L541.562 32.4ZM603.541 25.45C607.107 25.45 610.291 26.0667 613.091 27.3C615.924 28.5 618.307 30.2167 620.241 32.45C622.174 34.6833 623.641 37.3833 624.641 40.55C625.674 43.6833 626.191 47.2 626.191 51.1C626.191 55 625.674 58.5167 624.641 61.65C623.641 64.7833 622.174 67.4667 620.241 69.7C618.307 71.9333 615.924 73.65 613.091 74.85C610.291 76.05 607.107 76.65 603.541 76.65C599.974 76.65 596.774 76.05 593.941 74.85C591.141 73.65 588.757 71.9333 586.791 69.7C584.857 67.4667 583.374 64.7833 582.341 61.65C581.341 58.5167 580.841 55 580.841 51.1C580.841 47.2 581.341 43.6833 582.341 40.55C583.374 37.3833 584.857 34.6833 586.791 32.45C588.757 30.2167 591.141 28.5 593.941 27.3C596.774 26.0667 599.974 25.45 603.541 25.45ZM603.541 72.9C606.507 72.9 609.091 72.4 611.291 71.4C613.524 70.3667 615.374 68.9 616.841 67C618.341 65.1 619.457 62.8167 620.191 60.15C620.924 57.45 621.291 54.4333 621.291 51.1C621.291 47.8 620.924 44.8 620.191 42.1C619.457 39.4 618.341 37.1 616.841 35.2C615.374 33.2667 613.524 31.7833 611.291 30.75C609.091 29.7167 606.507 29.2 603.541 29.2C600.574 29.2 597.974 29.7167 595.741 30.75C593.541 31.7833 591.691 33.2667 590.191 35.2C588.724 37.1 587.607 39.4 586.841 42.1C586.107 44.8 585.741 47.8 585.741 51.1C585.741 54.4333 586.107 57.45 586.841 60.15C587.607 62.8167 588.724 65.1 590.191 67C591.691 68.9 593.541 70.3667 595.741 71.4C597.974 72.4 600.574 72.9 603.541 72.9ZM644.152 34.95C646.452 32.0833 649.102 29.7833 652.102 28.05C655.136 26.3167 658.502 25.45 662.202 25.45C664.936 25.45 667.336 25.8833 669.402 26.75C671.502 27.6167 673.236 28.8667 674.602 30.5C675.969 32.1333 677.002 34.1 677.702 36.4C678.402 38.7 678.752 41.3 678.752 44.2V76H673.952V44.2C673.952 39.5333 672.886 35.8833 670.752 33.25C668.619 30.5833 665.369 29.25 661.002 29.25C657.769 29.25 654.736 30.0833 651.902 31.75C649.102 33.3833 646.602 35.6667 644.402 38.6V76H639.602V26.25H642.252C643.086 26.25 643.569 26.6667 643.702 27.5L644.152 34.95ZM699.833 3.25V76H695.033V3.25H699.833ZM756.853 26.25L728.253 92C728.053 92.4667 727.786 92.85 727.453 93.15C727.153 93.45 726.703 93.6 726.103 93.6H722.703L731.453 74.15L710.403 26.25H714.353C714.853 26.25 715.253 26.3833 715.553 26.65C715.853 26.8833 716.053 27.15 716.153 27.45L732.903 66.15C733.103 66.65 733.27 67.1667 733.403 67.7C733.57 68.2 733.72 68.7167 733.853 69.25C734.02 68.7167 734.186 68.2 734.353 67.7C734.553 67.1667 734.753 66.65 734.953 66.15L751.503 27.45C751.67 27.0833 751.903 26.8 752.203 26.6C752.503 26.3667 752.836 26.25 753.203 26.25H756.853ZM463.009 163.2C464.509 165.133 466.142 166.5 467.909 167.3C469.709 168.067 471.692 168.45 473.859 168.45C478.059 168.45 481.326 166.917 483.659 163.85C486.026 160.783 487.209 156.217 487.209 150.15C487.209 147.017 486.942 144.35 486.409 142.15C485.876 139.917 485.109 138.1 484.109 136.7C483.109 135.3 481.892 134.283 480.459 133.65C479.026 133.017 477.409 132.7 475.609 132.7C472.876 132.7 470.509 133.3 468.509 134.5C466.542 135.667 464.709 137.35 463.009 139.55V163.2ZM462.459 132.4C464.592 129.9 467.009 127.883 469.709 126.35C472.442 124.817 475.609 124.05 479.209 124.05C482.076 124.05 484.676 124.633 487.009 125.8C489.342 126.933 491.342 128.6 493.009 130.8C494.676 133 495.959 135.733 496.859 139C497.792 142.233 498.259 145.95 498.259 150.15C498.259 153.917 497.742 157.433 496.709 160.7C495.709 163.933 494.259 166.75 492.359 169.15C490.459 171.517 488.159 173.383 485.459 174.75C482.759 176.083 479.709 176.75 476.309 176.75C473.309 176.75 470.759 176.267 468.659 175.3C466.592 174.333 464.709 173 463.009 171.3V192.95H452.259V125H458.759C460.226 125 461.159 125.683 461.559 127.05L462.459 132.4ZM519.654 102V176H508.904V102H519.654ZM560.173 153.7C556.34 153.833 553.106 154.15 550.473 154.65C547.84 155.117 545.706 155.733 544.073 156.5C542.44 157.233 541.256 158.117 540.523 159.15C539.823 160.183 539.473 161.317 539.473 162.55C539.473 163.75 539.656 164.783 540.023 165.65C540.423 166.483 540.956 167.183 541.623 167.75C542.323 168.283 543.123 168.683 544.023 168.95C544.956 169.183 545.973 169.3 547.073 169.3C549.873 169.3 552.273 168.783 554.273 167.75C556.306 166.683 558.273 165.15 560.173 163.15V153.7ZM531.673 132.1C537.44 126.733 544.306 124.05 552.273 124.05C555.206 124.05 557.806 124.533 560.073 125.5C562.373 126.433 564.29 127.767 565.823 129.5C567.39 131.233 568.573 133.3 569.373 135.7C570.206 138.067 570.623 140.7 570.623 143.6V176H565.823C564.79 176 564.006 175.85 563.473 175.55C562.94 175.217 562.49 174.567 562.123 173.6L561.073 169.45C559.773 170.617 558.49 171.667 557.223 172.6C555.956 173.5 554.64 174.267 553.273 174.9C551.94 175.533 550.49 176 548.923 176.3C547.39 176.633 545.69 176.8 543.823 176.8C541.756 176.8 539.823 176.517 538.023 175.95C536.256 175.383 534.723 174.533 533.423 173.4C532.123 172.233 531.09 170.8 530.323 169.1C529.59 167.4 529.223 165.4 529.223 163.1C529.223 161.133 529.74 159.217 530.773 157.35C531.84 155.483 533.573 153.817 535.973 152.35C538.406 150.85 541.59 149.617 545.523 148.65C549.49 147.683 554.373 147.133 560.173 147V143.6C560.173 139.933 559.39 137.2 557.823 135.4C556.256 133.6 553.956 132.7 550.923 132.7C548.856 132.7 547.123 132.967 545.723 133.5C544.323 134 543.106 134.55 542.073 135.15C541.04 135.75 540.123 136.317 539.323 136.85C538.523 137.35 537.673 137.6 536.773 137.6C536.04 137.6 535.406 137.417 534.873 137.05C534.373 136.65 533.956 136.167 533.623 135.6L531.673 132.1ZM620.032 176V133.45H596.432V162.4C596.432 164.233 596.882 165.633 597.782 166.6C598.682 167.567 599.882 168.05 601.382 168.05C602.216 168.05 602.932 167.95 603.532 167.75C604.132 167.517 604.649 167.283 605.082 167.05C605.516 166.783 605.882 166.55 606.182 166.35C606.516 166.117 606.832 166 607.132 166C607.732 166 608.216 166.333 608.582 167L611.782 172.25C610.116 173.717 608.149 174.85 605.882 175.65C603.616 176.417 601.282 176.8 598.882 176.8C594.649 176.8 591.382 175.617 589.082 173.25C586.816 170.85 585.682 167.483 585.682 163.15V133.45H580.082C579.482 133.45 578.966 133.267 578.532 132.9C578.099 132.5 577.882 131.917 577.882 131.15V126.8L586.132 125.6L588.482 110.85C588.649 110.283 588.932 109.833 589.332 109.5C589.732 109.133 590.266 108.95 590.932 108.95H596.432V125.7H620.032V121.4C620.032 118.5 620.449 115.9 621.282 113.6C622.149 111.3 623.366 109.35 624.932 107.75C626.532 106.15 628.466 104.933 630.732 104.1C632.999 103.233 635.532 102.8 638.332 102.8C640.566 102.8 642.716 103.133 644.782 103.8L644.532 109.2C644.466 110.1 644.016 110.633 643.182 110.8C642.382 110.967 641.366 111.05 640.132 111.05C638.632 111.05 637.282 111.233 636.082 111.6C634.882 111.933 633.849 112.517 632.982 113.35C632.149 114.183 631.499 115.283 631.032 116.65C630.599 118.017 630.382 119.717 630.382 121.75V125.7H644.332V133.45H630.732V176H620.032ZM672.649 124.2C676.415 124.2 679.815 124.817 682.849 126.05C685.915 127.283 688.515 129.033 690.649 131.3C692.815 133.567 694.482 136.317 695.649 139.55C696.815 142.783 697.399 146.417 697.399 150.45C697.399 154.483 696.815 158.117 695.649 161.35C694.482 164.583 692.815 167.35 690.649 169.65C688.515 171.917 685.915 173.667 682.849 174.9C679.815 176.133 676.415 176.75 672.649 176.75C668.849 176.75 665.415 176.133 662.349 174.9C659.315 173.667 656.715 171.917 654.549 169.65C652.382 167.35 650.715 164.583 649.549 161.35C648.382 158.117 647.799 154.483 647.799 150.45C647.799 146.417 648.382 142.783 649.549 139.55C650.715 136.317 652.382 133.567 654.549 131.3C656.715 129.033 659.315 127.283 662.349 126.05C665.415 124.817 668.849 124.2 672.649 124.2ZM672.649 168.35C677.249 168.35 680.665 166.817 682.899 163.75C685.165 160.65 686.299 156.233 686.299 150.5C686.299 144.767 685.165 140.35 682.899 137.25C680.665 134.117 677.249 132.55 672.649 132.55C667.982 132.55 664.515 134.117 662.249 137.25C659.982 140.35 658.849 144.767 658.849 150.5C658.849 156.233 659.982 160.65 662.249 163.75C664.515 166.817 667.982 168.35 672.649 168.35ZM717.878 134.45C719.478 131.217 721.411 128.683 723.678 126.85C725.944 124.983 728.661 124.05 731.828 124.05C732.928 124.05 733.961 124.183 734.928 124.45C735.894 124.683 736.761 125.05 737.528 125.55L736.778 133.65C736.644 134.217 736.428 134.617 736.128 134.85C735.861 135.05 735.494 135.15 735.028 135.15C734.528 135.15 733.811 135.067 732.878 134.9C731.944 134.7 730.961 134.6 729.928 134.6C728.428 134.6 727.094 134.817 725.928 135.25C724.794 135.683 723.761 136.317 722.828 137.15C721.928 137.983 721.128 139 720.428 140.2C719.728 141.4 719.078 142.767 718.478 144.3V176H707.728V125H713.978C715.111 125 715.894 125.217 716.328 125.65C716.761 126.05 717.061 126.767 717.228 127.8L717.878 134.45ZM744.642 176V125H751.142C752.608 125 753.542 125.683 753.942 127.05L754.642 131.5C755.575 130.433 756.542 129.467 757.542 128.6C758.542 127.7 759.608 126.933 760.742 126.3C761.908 125.633 763.142 125.117 764.442 124.75C765.775 124.383 767.208 124.2 768.742 124.2C770.375 124.2 771.875 124.433 773.242 124.9C774.608 125.367 775.808 126.033 776.842 126.9C777.908 127.767 778.825 128.817 779.592 130.05C780.358 131.283 780.992 132.667 781.492 134.2C782.258 132.433 783.225 130.917 784.392 129.65C785.558 128.383 786.858 127.35 788.292 126.55C789.725 125.75 791.242 125.167 792.842 124.8C794.475 124.4 796.125 124.2 797.792 124.2C800.525 124.2 802.958 124.633 805.092 125.5C807.258 126.367 809.075 127.633 810.542 129.3C812.042 130.933 813.175 132.95 813.942 135.35C814.708 137.75 815.092 140.483 815.092 143.55V176H804.342V143.55C804.342 139.95 803.558 137.25 801.992 135.45C800.458 133.617 798.175 132.7 795.142 132.7C793.775 132.7 792.492 132.933 791.292 133.4C790.092 133.867 789.042 134.55 788.142 135.45C787.242 136.35 786.525 137.483 785.992 138.85C785.492 140.183 785.242 141.75 785.242 143.55V176H774.492V143.55C774.492 139.817 773.742 137.083 772.242 135.35C770.742 133.583 768.542 132.7 765.642 132.7C763.642 132.7 761.792 133.217 760.092 134.25C758.392 135.25 756.825 136.633 755.392 138.4V176H744.642Z" fill="white"/>
<path d="M21.3504 138.5C24.0171 138.5 26.3504 138.183 28.3504 137.55C30.3504 136.883 32.0171 135.967 33.3504 134.8C34.6837 133.633 35.6837 132.25 36.3504 130.65C37.0171 129.017 37.3504 127.217 37.3504 125.25C37.3504 121.317 36.0504 118.317 33.4504 116.25C30.8504 114.183 26.9171 113.15 21.6504 113.15H12.1504V138.5H21.3504ZM55.2504 176H44.8004C42.7337 176 41.2337 175.2 40.3004 173.6L23.5004 149.35C22.9337 148.517 22.3171 147.917 21.6504 147.55C20.9837 147.183 19.9837 147 18.6504 147H12.1504V176H0.450391V104H21.6504C26.3837 104 30.4504 104.483 33.8504 105.45C37.2837 106.417 40.1004 107.8 42.3004 109.6C44.5004 111.367 46.1171 113.5 47.1504 116C48.2171 118.5 48.7504 121.283 48.7504 124.35C48.7504 126.85 48.3671 129.183 47.6004 131.35C46.8671 133.517 45.7837 135.483 44.3504 137.25C42.9504 139.017 41.2171 140.55 39.1504 141.85C37.0837 143.15 34.7337 144.167 32.1004 144.9C33.5337 145.767 34.7671 146.983 35.8004 148.55L55.2504 176ZM92.0566 144.75C92.0566 142.95 91.79 141.283 91.2566 139.75C90.7566 138.183 90.0066 136.833 89.0066 135.7C88.0066 134.533 86.7566 133.633 85.2566 133C83.79 132.333 82.09 132 80.1566 132C76.2566 132 73.19 133.117 70.9566 135.35C68.7233 137.583 67.3066 140.717 66.7066 144.75H92.0566ZM66.4066 151.35C66.54 154.25 66.99 156.767 67.7566 158.9C68.5233 161 69.54 162.75 70.8066 164.15C72.1066 165.55 73.64 166.6 75.4066 167.3C77.2066 167.967 79.2066 168.3 81.4066 168.3C83.5066 168.3 85.3233 168.067 86.8566 167.6C88.39 167.1 89.7233 166.567 90.8566 166C91.99 165.4 92.9566 164.867 93.7566 164.4C94.5566 163.9 95.29 163.65 95.9566 163.65C96.8233 163.65 97.49 163.983 97.9566 164.65L101.007 168.6C99.74 170.1 98.3066 171.367 96.7066 172.4C95.1066 173.433 93.4066 174.283 91.6066 174.95C89.8066 175.583 87.9566 176.033 86.0566 176.3C84.1566 176.6 82.3066 176.75 80.5066 176.75C76.9733 176.75 73.69 176.167 70.6566 175C67.6566 173.8 65.04 172.05 62.8066 169.75C60.6066 167.45 58.8733 164.6 57.6066 161.2C56.3733 157.8 55.7566 153.883 55.7566 149.45C55.7566 145.917 56.3066 142.617 57.4066 139.55C58.54 136.483 60.14 133.817 62.2066 131.55C64.3066 129.283 66.84 127.5 69.8066 126.2C72.8066 124.867 76.19 124.2 79.9566 124.2C83.09 124.2 85.99 124.717 88.6566 125.75C91.3233 126.75 93.6233 128.233 95.5566 130.2C97.49 132.167 98.99 134.583 100.057 137.45C101.157 140.283 101.707 143.517 101.707 147.15C101.707 148.817 101.523 149.933 101.157 150.5C100.79 151.067 100.123 151.35 99.1566 151.35H66.4066ZM122.682 102V176H111.932V102H122.682ZM147.15 125V176H136.4V125H147.15ZM148.95 109.6C148.95 110.567 148.75 111.483 148.35 112.35C147.984 113.217 147.467 113.983 146.8 114.65C146.134 115.283 145.35 115.8 144.45 116.2C143.584 116.567 142.65 116.75 141.65 116.75C140.684 116.75 139.767 116.567 138.9 116.2C138.067 115.8 137.334 115.283 136.7 114.65C136.067 113.983 135.55 113.217 135.15 112.35C134.784 111.483 134.6 110.567 134.6 109.6C134.6 108.6 134.784 107.667 135.15 106.8C135.55 105.933 136.067 105.183 136.7 104.55C137.334 103.883 138.067 103.367 138.9 103C139.767 102.6 140.684 102.4 141.65 102.4C142.65 102.4 143.584 102.6 144.45 103C145.35 103.367 146.134 103.883 146.8 104.55C147.467 105.183 147.984 105.933 148.35 106.8C148.75 107.667 148.95 108.6 148.95 109.6ZM187.907 153.7C184.074 153.833 180.841 154.15 178.207 154.65C175.574 155.117 173.441 155.733 171.807 156.5C170.174 157.233 168.991 158.117 168.257 159.15C167.557 160.183 167.207 161.317 167.207 162.55C167.207 163.75 167.391 164.783 167.757 165.65C168.157 166.483 168.691 167.183 169.357 167.75C170.057 168.283 170.857 168.683 171.757 168.95C172.691 169.183 173.707 169.3 174.807 169.3C177.607 169.3 180.007 168.783 182.007 167.75C184.041 166.683 186.007 165.15 187.907 163.15V153.7ZM159.407 132.1C165.174 126.733 172.041 124.05 180.007 124.05C182.941 124.05 185.541 124.533 187.807 125.5C190.107 126.433 192.024 127.767 193.557 129.5C195.124 131.233 196.307 133.3 197.107 135.7C197.941 138.067 198.357 140.7 198.357 143.6V176H193.557C192.524 176 191.741 175.85 191.207 175.55C190.674 175.217 190.224 174.567 189.857 173.6L188.807 169.45C187.507 170.617 186.224 171.667 184.957 172.6C183.691 173.5 182.374 174.267 181.007 174.9C179.674 175.533 178.224 176 176.657 176.3C175.124 176.633 173.424 176.8 171.557 176.8C169.491 176.8 167.557 176.517 165.757 175.95C163.991 175.383 162.457 174.533 161.157 173.4C159.857 172.233 158.824 170.8 158.057 169.1C157.324 167.4 156.957 165.4 156.957 163.1C156.957 161.133 157.474 159.217 158.507 157.35C159.574 155.483 161.307 153.817 163.707 152.35C166.141 150.85 169.324 149.617 173.257 148.65C177.224 147.683 182.107 147.133 187.907 147V143.6C187.907 139.933 187.124 137.2 185.557 135.4C183.991 133.6 181.691 132.7 178.657 132.7C176.591 132.7 174.857 132.967 173.457 133.5C172.057 134 170.841 134.55 169.807 135.15C168.774 135.75 167.857 136.317 167.057 136.85C166.257 137.35 165.407 137.6 164.507 137.6C163.774 137.6 163.141 137.417 162.607 137.05C162.107 136.65 161.691 136.167 161.357 135.6L159.407 132.1ZM221.7 163.2C223.2 165.133 224.834 166.5 226.6 167.3C228.4 168.067 230.35 168.45 232.45 168.45C236.684 168.45 239.984 166.917 242.35 163.85C244.717 160.783 245.9 156.033 245.9 149.6C245.9 143.733 244.867 139.45 242.8 136.75C240.767 134.05 237.85 132.7 234.05 132.7C231.417 132.7 229.117 133.3 227.15 134.5C225.217 135.667 223.4 137.35 221.7 139.55V163.2ZM221.7 131.75C223.8 129.45 226.15 127.617 228.75 126.25C231.35 124.883 234.317 124.2 237.65 124.2C240.617 124.2 243.284 124.783 245.65 125.95C248.05 127.083 250.084 128.733 251.75 130.9C253.417 133.067 254.7 135.7 255.6 138.8C256.5 141.867 256.95 145.333 256.95 149.2C256.95 153.333 256.434 157.1 255.4 160.5C254.4 163.867 252.95 166.767 251.05 169.2C249.15 171.6 246.85 173.467 244.15 174.8C241.45 176.1 238.434 176.75 235.1 176.75C233.467 176.75 231.984 176.583 230.65 176.25C229.317 175.95 228.084 175.5 226.95 174.9C225.817 174.3 224.767 173.583 223.8 172.75C222.867 171.917 221.967 170.967 221.1 169.9L220.65 173.85C220.484 174.617 220.184 175.167 219.75 175.5C219.317 175.833 218.717 176 217.95 176H210.95V102H221.7V131.75ZM278.596 125V176H267.846V125H278.596ZM280.396 109.6C280.396 110.567 280.196 111.483 279.796 112.35C279.429 113.217 278.912 113.983 278.246 114.65C277.579 115.283 276.796 115.8 275.896 116.2C275.029 116.567 274.096 116.75 273.096 116.75C272.129 116.75 271.212 116.567 270.346 116.2C269.512 115.8 268.779 115.283 268.146 114.65C267.512 113.983 266.996 113.217 266.596 112.35C266.229 111.483 266.046 110.567 266.046 109.6C266.046 108.6 266.229 107.667 266.596 106.8C266.996 105.933 267.512 105.183 268.146 104.55C268.779 103.883 269.512 103.367 270.346 103C271.212 102.6 272.129 102.4 273.096 102.4C274.096 102.4 275.029 102.6 275.896 103C276.796 103.367 277.579 103.883 278.246 104.55C278.912 105.183 279.429 105.933 279.796 106.8C280.196 107.667 280.396 108.6 280.396 109.6ZM303.053 102V176H292.303V102H303.053ZM327.521 125V176H316.771V125H327.521ZM329.321 109.6C329.321 110.567 329.121 111.483 328.721 112.35C328.355 113.217 327.838 113.983 327.171 114.65C326.505 115.283 325.721 115.8 324.821 116.2C323.955 116.567 323.021 116.75 322.021 116.75C321.055 116.75 320.138 116.567 319.271 116.2C318.438 115.8 317.705 115.283 317.071 114.65C316.438 113.983 315.921 113.217 315.521 112.35C315.155 111.483 314.971 110.567 314.971 109.6C314.971 108.6 315.155 107.667 315.521 106.8C315.921 105.933 316.438 105.183 317.071 104.55C317.705 103.883 318.438 103.367 319.271 103C320.138 102.6 321.055 102.4 322.021 102.4C323.021 102.4 323.955 102.6 324.821 103C325.721 103.367 326.505 103.883 327.171 104.55C327.838 105.183 328.355 105.933 328.721 106.8C329.121 107.667 329.321 108.6 329.321 109.6ZM357.379 176.8C353.145 176.8 349.879 175.617 347.579 173.25C345.312 170.85 344.179 167.483 344.179 163.15V133.45H338.579C337.979 133.45 337.462 133.267 337.029 132.9C336.595 132.5 336.379 131.917 336.379 131.15V126.8L344.629 125.6L346.979 110.85C347.145 110.283 347.429 109.833 347.829 109.5C348.229 109.133 348.762 108.95 349.429 108.95H354.929V125.7H369.079V133.45H354.929V162.4C354.929 164.233 355.379 165.633 356.279 166.6C357.179 167.567 358.379 168.05 359.879 168.05C360.712 168.05 361.429 167.95 362.029 167.75C362.629 167.517 363.145 167.283 363.579 167.05C364.012 166.783 364.379 166.55 364.679 166.35C365.012 166.117 365.329 166 365.629 166C366.229 166 366.712 166.333 367.079 167L370.279 172.25C368.612 173.717 366.645 174.85 364.379 175.65C362.112 176.417 359.779 176.8 357.379 176.8ZM422.802 125L394.702 190.5C394.335 191.267 393.885 191.867 393.352 192.3C392.852 192.733 392.069 192.95 391.002 192.95H383.052L392.452 172.55L371.652 125H381.002C381.902 125 382.585 125.217 383.052 125.65C383.552 126.05 383.919 126.533 384.152 127.1L396.302 156.05C396.602 156.883 396.869 157.717 397.102 158.55C397.369 159.35 397.619 160.183 397.852 161.05C398.119 160.183 398.385 159.333 398.652 158.5C398.919 157.667 399.219 156.833 399.552 156L411.202 127.1C411.435 126.5 411.819 126 412.352 125.6C412.919 125.2 413.535 125 414.202 125H422.802Z" fill="url(#paint0_linear_4_100)"/>
<defs>
<linearGradient id="paint0_linear_4_100" x1="708.5" y1="332" x2="83.5" y2="161" gradientUnits="userSpaceOnUse">
<stop offset="0.251241" stop-color="#01FF8C"/>
<stop offset="1" stop-color="white"/>
</linearGradient>
</defs>
</svg>
